# File created by Blade
# Date/Time:  Thu Sep 25 19:43:58 2014
# Frame Rate: 120.000 fps
#------------------------------------------------------
:FULLY-SPECIFIED
:DEGREES
568
root 3.172696 13.690370 -9.423149 7.993184 16.646612 -22.436231
Spine -1.210505 -0.156857 -40.610279
Head -3.898338 0.639394 -40.386800
LeftShoulder -3.255330 10.784263 19.642228
LeftArm 15.070321 -6.229835 -54.442873
LeftForeArm 38.468756 -0.000000 15.130893
LeftHand -31.375282 -0.000000 108.742554
LeftHandThumb1 -26.253704 0.000000 33.147579
RightShoulder -24.205792 33.972595 -63.930516
RightArm 69.509052 34.683770 46.948963
RightForeArm 28.566736 -0.000000 20.880243
RightHand 2.862606 -0.000000 -4.743344
RightHandThumb1 -24.326973 -0.000000 -32.862282
LeftUpLeg -108.342944 45.012086 22.827920
LeftLeg 126.226898 -0.000000 -0.000000
LeftFoot -28.663282 -18.895159 -14.379080
LeftToeBase 4.267464 -0.000000 -0.000000
RightUpLeg -1.226646 -20.801987 -40.000069
RightLeg 8.503883 -0.000000 -0.000000
RightFoot 7.563682 -19.649848 -0.101560
RightToeBase 7.837346 -0.000000 -0.000000
569
root 3.172284 13.695071 -9.437694 8.010627 16.575615 -22.462195
Spine -1.203972 -0.113219 -40.588205
Head -3.962958 0.678462 -40.344531
LeftShoulder -3.226801 10.725771 19.626496
LeftArm 15.028485 -6.179101 -54.415795
LeftForeArm 38.243412 0.000000 15.146622
LeftHand -31.276006 -0.000000 108.711751
LeftHandThumb1 -26.253704 0.000000 33.147579
RightShoulder -24.193666 33.992434 -63.949122
RightArm 69.573436 34.607870 47.019100
RightForeArm 28.373224 -0.000000 20.873299
RightHand 2.932868 -0.000000 -4.715508
RightHandThumb1 -24.326973 -0.000000 -32.862282
LeftUpLeg -108.339926 45.038707 22.838893
LeftLeg 126.204915 -0.000000 -0.000000
LeftFoot -28.685949 -18.838860 -14.379512
LeftToeBase 4.271450 -0.000000 -0.000000
RightUpLeg -1.319361 -20.805312 -39.947222
RightLeg 8.480511 -0.000000 -0.000000
RightFoot 7.581167 -19.654049 -0.118466
RightToeBase 7.799901 -0.000000 -0.000000
570
root 3.172850 13.698467 -9.448356 8.008178 16.529860 -22.493851
Spine -1.164791 -0.074558 -40.541396
Head -4.062369 0.731388 -40.329217
LeftShoulder -3.214944 10.656995 19.590444
LeftArm 14.989573 -6.160456 -54.383820
LeftForeArm 38.209124 -0.000000 15.177439
LeftHand -31.280416 0.000000 108.808757
LeftHandThumb1 -26.253704 0.000000 33.147579
RightShoulder -24.207612 33.986596 -64.007774
RightArm 69.671744 34.534742 47.131349
RightForeArm 28.336040 -0.000000 20.861495
RightHand 2.914954 -0.000000 -4.666815
RightHandThumb1 -24.326973 -0.000000 -32.862282
LeftUpLeg -108.325190 45.046599 22.876146
LeftLeg 126.193586 -0.000000 -0.000000
LeftFoot -28.701617 -18.792291 -14.371870
LeftToeBase 4.279383 -0.000000 -0.000000
RightUpLeg -1.359162 -20.834692 -39.902543
RightLeg 8.435110 -0.000000 -0.000000
RightFoot 7.609236 -19.635051 -0.151226
RightToeBase 7.737704 -0.000000 -0.000000
571
root 3.174501 13.701045 -9.460503 8.016979 16.486380 -22.493070
Spine -1.131630 -0.043468 -40.547536
Head -4.122679 0.786486 -40.236577
LeftShoulder -3.199961 10.667542 19.593305
LeftArm 15.027850 -6.159923 -54.384186
LeftForeArm 38.133849 0.000000 15.163239
LeftHand -31.290715 -0.000000 108.851373
LeftHandThumb1 -26.253704 0.000000 33.147579
RightShoulder -24.216819 34.066699 -64.050214
RightArm 69.684830 34.395927 47.117645
RightForeArm 28.354018 -0.000000 20.799290
RightHand 2.880752 0.000000 -4.604288
RightHandThumb1 -24.326973 -0.000000 -32.862282
LeftUpLeg -108.267896 45.046604 22.938858
LeftLeg 126.167066 -0.000000 -0.000000
LeftFoot -28.656629 -18.872495 -14.411016
LeftToeBase 4.187461 -0.000000 -0.000000
RightUpLeg -1.399311 -20.863423 -39.893268
RightLeg 8.389574 -0.000000 -0.000000
RightFoot 7.644277 -19.619159 -0.203064
RightToeBase 7.764885 -0.000000 -0.000000
572
root 3.176758 13.702725 -9.468314 7.985086 16.475623 -22.478419
Spine -1.054491 -0.009872 -40.564935
Head -4.155076 0.807984 -40.157445
LeftShoulder -3.176583 10.694951 19.597364
LeftArm 15.088026 -6.156004 -54.373201
LeftForeArm 38.055781 -0.000000 15.111665
LeftHand -31.268768 -0.000000 108.899604
LeftHandThumb1 -26.253704 0.000000 33.147579
RightShoulder -24.338601 34.308983 -64.208088
RightArm 69.593424 34.053335 47.067478
RightForeArm 28.397093 -0.000000 20.685462
RightHand 2.968725 -0.000000 -4.616443
RightHandThumb1 -24.326973 -0.000000 -32.862282
LeftUpLeg -108.232546 44.985144 22.946235
LeftLeg 126.177053 -0.000000 -0.000000
LeftFoot -28.691800 -18.766304 -14.405622
LeftToeBase 4.277652 -0.000000 -0.000000
RightUpLeg -1.360533 -20.934911 -39.919792
RightLeg 8.329422 -0.000000 -0.000000
RightFoot 7.664365 -19.545409 -0.258539
RightToeBase 7.740379 -0.000000 -0.000000
573
root 3.178113 13.705227 -9.478836 7.991731 16.459587 -22.496573
Spine -1.003486 0.017322 -40.562978
Head -4.243651 0.764070 -40.051864
LeftShoulder -3.178242 10.665586 19.620455
LeftArm 15.116826 -6.176904 -54.413109
LeftForeArm 38.020571 -0.000000 15.125524
LeftHand -31.221660 0.000000 108.906382
LeftHandThumb1 -26.253704 0.000000 33.147579
RightShoulder -24.205492 34.219830 -64.142450
RightArm 69.644128 34.149758 47.132724
RightForeArm 28.405934 -0.000000 20.785010
RightHand 2.857242 -0.000000 -4.627422
RightHandThumb1 -24.326973 -0.000000 -32.862282
LeftUpLeg -108.261775 44.947757 22.927915
LeftLeg 126.172623 -0.000000 -0.000000
LeftFoot -28.734766 -18.646703 -14.381126
LeftToeBase 4.220566 -0.000000 -0.000000
RightUpLeg -1.373841 -21.000032 -39.894815
RightLeg 8.268772 -0.000000 -0.000000
RightFoot 7.702892 -19.472099 -0.318664
RightToeBase 7.699148 -0.000000 -0.000000
574
root 3.179836 13.706251 -9.489225 7.998167 16.438007 -22.513225
Spine -0.954697 0.038319 -40.559409
Head -4.330579 0.701470 -39.963994
LeftShoulder -3.218358 10.639887 19.624759
LeftArm 15.164311 -6.167406 -54.435120
LeftForeArm 37.991838 -0.000000 15.154454
LeftHand -31.249888 0.000000 109.021683
LeftHandThumb1 -26.253704 0.000000 33.147579
RightShoulder -24.094573 34.181676 -64.071935
RightArm 69.696652 34.188468 47.133847
RightForeArm 28.398910 0.000000 20.817775
RightHand 2.845465 0.000000 -4.609886
RightHandThumb1 -24.326973 -0.000000 -32.862282
LeftUpLeg -108.271607 44.925668 22.940660
LeftLeg 126.166468 -0.000000 -0.000000
LeftFoot -28.753458 -18.605035 -14.408721
LeftToeBase 4.278399 -0.000000 -0.000000
RightUpLeg -1.394841 -21.062251 -39.872542
RightLeg 8.220069 -0.000000 -0.000000
RightFoot 7.715848 -19.415769 -0.321310
RightToeBase 7.649063 -0.000000 -0.000000
575
root 3.180195 13.709642 -9.497209 8.004197 16.436168 -22.543341
Spine -0.916434 0.070448 -40.539356
Head -4.366212 0.625026 -39.900231
LeftShoulder -3.259749 10.669791 19.607944
LeftArm 15.307008 -6.120262 -54.427078
LeftForeArm 37.950795 0.000000 15.089739
LeftHand -31.238214 0.000000 108.899590
LeftHandThumb1 -26.253704 0.000000 33.147579
RightShoulder -24.018563 34.130656 -63.915022
RightArm 69.887984 34.147401 47.024048
RightForeArm 28.611472 -0.000000 20.688737
RightHand 2.939475 -0.000000 -4.552798
RightHandThumb1 -24.326973 -0.000000 -32.862282
LeftUpLeg -108.273210 44.893804 22.960193
LeftLeg 126.165504 -0.000000 -0.000000
LeftFoot -28.827689 -18.579000 -14.454154
LeftToeBase 4.475403 -0.000000 -0.000000
RightUpLeg -1.395261 -21.144910 -39.833211
RightLeg 8.158788 -0.000000 -0.000000
RightFoot 7.732094 -19.361035 -0.356611
RightToeBase 7.669198 -0.000000 -0.000000
